# xmcd CD database file
#
# Track frame offsets:
#	182
#	13875
#	28422
#	45097
#	62872
#	73112
#	85147
#	98187
#	106367
#	120465
#	138352
#	148347
#
# Disc length: 2268 seconds
#
# Revision: 0
# Processed by: cddbd v1.5.1PL0 Copyright (c) Steve Scherf et al.
# Submitted via: CDex 1.51
#
DISCID=ab08da0c
DTITLE=T-Bone Walker - Rare and Well Done
DYEAR=1965
DGENRE=Blues
TTITLE0=Back on the scene
TTITLE1=Good Boy
TTITLE2=No Do Right
TTITLE3=Please Come Back To Me
TTITLE4=Natural Ball
TTITLE5=Baby, she's a hit
TTITLE6=Treat your daddy well
TTITLE7=Further on up the road
TTITLE8=Why don't my baby treat me right
TTITLE9=Afraid to close my eyes
TTITLE10=She's my old time used to be
TTITLE11=I used to be a good boy
EXTD=YEAR: 1965
EXTT0=
EXTT1=
EXTT2=
EXTT3=
EXTT4=
EXTT5=
EXTT6=
EXTT7=
EXTT8=
EXTT9=
EXTT10=
EXTT11=
PLAYORDER=
